<?xml version="1.0" encoding="UTF-8"?>
<svg id="Layer_2" data-name="Layer 2" xmlns="http://www.w3.org/2000/svg" viewBox="0 0 958 53.71">
  <defs>
    <style>
      .cls-1 {
        fill: #fff;
      }

      .cls-2 {
        stroke: #00ce7c;
        stroke-miterlimit: 10;
        stroke-width: 1.94px;
      }

      .cls-2, .cls-3 {
        fill: none;
      }

      .cls-4 {
        fill: #00ce7c;
      }

      .cls-5 {
        fill: #00ce7c;
      }
    </style>
  </defs>
  <g id="Layer_1-2" data-name="Layer 1">
    <g>
      <g id="Dla_profesjonalistów" data-name="Dla profesjonalistów">
        <rect id="Rectangle_4" data-name="Rectangle 4" class="cls-5" width="493.3" height="53.71" rx="5.12" ry="5.12"/>
        <rect id="Rectangle_5" data-name="Rectangle 5" class="cls-2" x="462.31" y="1.14" width="494.72" height="51.46" rx="5.12" ry="5.12"/>
      </g>
      <g>
        <rect class="cls-3" x="73.33" y="18.24" width="342.33" height="24.35"/>
        <path class="cls-1" d="M75.51,38.21v-19.62h6.87c5.8,0,9.8,4,9.8,9.85s-3.92,9.77-9.61,9.77h-7.06ZM78.94,21.75v13.29h3.3c3.92,0,6.31-2.52,6.31-6.6s-2.44-6.68-6.5-6.68h-3.11Z"/>
        <path class="cls-1" d="M98.8,35.04h8.21v3.17h-11.65v-19.62h3.44v16.45Z"/>
        <path class="cls-1" d="M108.46,38.21l7.09-19.62h3.52l7.09,19.62h-3.62l-1.58-4.54h-7.33l-1.58,4.54h-3.57ZM114.63,30.77h5.31l-2.25-6.33c-.16-.51-.35-1.1-.4-1.5-.08.38-.24.97-.43,1.5l-2.23,6.33Z"/>
        <path class="cls-1" d="M139.29,31.44v6.76h-3.44v-19.62h7.76c3.95,0,6.5,2.58,6.5,6.42s-2.58,6.44-6.5,6.44h-4.32ZM139.29,21.65v6.74h3.6c2.36,0,3.62-1.26,3.62-3.41s-1.29-3.33-3.57-3.33h-3.65Z"/>
        <path class="cls-1" d="M153,38.21v-19.62h7.49c4.46,0,7.06,2.25,7.06,6.12,0,2.63-1.23,4.51-3.54,5.45l3.73,8.05h-3.76l-3.33-7.33h-4.21v7.33h-3.44ZM156.44,27.85h4.05c2.17,0,3.46-1.15,3.46-3.14s-1.29-3.06-3.46-3.06h-4.05v6.2Z"/>
        <path class="cls-1" d="M179.27,38.53c-5.61,0-9.47-4.16-9.47-10.15s3.89-10.15,9.5-10.15,9.53,4.16,9.53,10.15-3.92,10.15-9.56,10.15ZM179.3,21.54c-3.6,0-5.9,2.66-5.9,6.84s2.31,6.84,5.9,6.84,5.9-2.71,5.9-6.84-2.31-6.84-5.9-6.84Z"/>
        <path class="cls-1" d="M195.45,30.18v8.03h-3.44v-19.62h12.13v3.17h-8.7v5.34h7.3v3.09h-7.3Z"/>
        <path class="cls-1" d="M207.23,38.21v-19.62h12.19v3.17h-8.75v5.05h7.84v3.03h-7.84v5.21h8.75v3.17h-12.19Z"/>
        <path class="cls-1" d="M228.99,18.24c3.97,0,6.5,2.2,6.6,5.74h-3.44c-.08-1.69-1.29-2.68-3.22-2.68-2.12,0-3.49,1.02-3.49,2.66,0,1.4.75,2.17,2.39,2.55l3.09.67c3.36.72,4.99,2.44,4.99,5.37,0,3.65-2.85,6.01-7.17,6.01s-6.92-2.23-7.01-5.74h3.44c.03,1.66,1.37,2.66,3.57,2.66s3.73-.99,3.73-2.63c0-1.32-.67-2.09-2.28-2.44l-3.11-.7c-3.33-.72-5.07-2.63-5.07-5.64,0-3.44,2.84-5.82,6.98-5.82Z"/>
        <path class="cls-1" d="M237.77,31.52h3.3v1.15c0,1.5.83,2.68,2.76,2.68s2.74-1.1,2.74-2.82v-13.96h3.44v14.14c0,3.46-2.42,5.82-6.15,5.82-4.03,0-6.09-2.5-6.09-5.88v-1.15Z"/>
        <path class="cls-1" d="M262.56,38.53c-5.61,0-9.47-4.16-9.47-10.15s3.89-10.15,9.5-10.15,9.53,4.16,9.53,10.15-3.92,10.15-9.56,10.15ZM262.59,21.54c-3.6,0-5.9,2.66-5.9,6.84s2.31,6.84,5.9,6.84,5.9-2.71,5.9-6.84-2.31-6.84-5.9-6.84Z"/>
        <path class="cls-1" d="M275.31,38.21v-19.62h3.41l9.21,13.9v-13.9h3.38v19.62h-3.38l-9.23-13.9v13.9h-3.38Z"/>
        <path class="cls-1" d="M293.77,38.21l7.09-19.62h3.52l7.09,19.62h-3.62l-1.58-4.54h-7.33l-1.58,4.54h-3.57ZM299.94,30.77h5.31l-2.25-6.33c-.16-.51-.35-1.1-.4-1.5-.08.38-.24.97-.43,1.5l-2.23,6.33Z"/>
        <path class="cls-1" d="M317.35,35.04h8.21v3.17h-11.65v-19.62h3.44v16.45Z"/>
        <path class="cls-1" d="M331.79,38.21h-3.44v-19.62h3.44v19.62Z"/>
        <path class="cls-1" d="M341.99,18.24c3.97,0,6.5,2.2,6.6,5.74h-3.44c-.08-1.69-1.29-2.68-3.22-2.68-2.12,0-3.49,1.02-3.49,2.66,0,1.4.75,2.17,2.39,2.55l3.09.67c3.36.72,4.99,2.44,4.99,5.37,0,3.65-2.85,6.01-7.17,6.01s-6.92-2.23-7.01-5.74h3.44c.03,1.66,1.37,2.66,3.57,2.66s3.73-.99,3.73-2.63c0-1.32-.67-2.09-2.28-2.44l-3.11-.7c-3.33-.72-5.07-2.63-5.07-5.64,0-3.44,2.84-5.82,6.98-5.82Z"/>
        <path class="cls-1" d="M350.03,18.59h14.92v3.17h-5.74v16.45h-3.44v-16.45h-5.74v-3.17Z"/>
        <path class="cls-1" d="M375.15,38.53c-5.61,0-9.47-4.16-9.47-10.15s3.89-10.15,9.5-10.15,9.53,4.16,9.53,10.15-3.92,10.15-9.56,10.15ZM375.18,21.54c-3.6,0-5.9,2.66-5.9,6.84s2.31,6.84,5.9,6.84,5.9-2.71,5.9-6.84-2.31-6.84-5.9-6.84ZM376.42,17.19h-2.42l2.01-3.97h3.03l-2.63,3.97Z"/>
        <path class="cls-1" d="M385.4,18.59h3.57l3.11,10.36c.29,1.07.59,2.17.89,3.89.32-1.74.62-2.76.97-3.89l3.09-10.36h3.78l3.03,10.36c.32,1.1.62,2.23.94,3.89.38-1.83.64-2.87.94-3.87l3.17-10.39h3.49l-5.96,19.62h-3.33l-4.19-14.28-4.27,14.28h-3.38l-5.85-19.62Z"/>
      </g>
      <g>
        <rect class="cls-3" x="564.29" y="18.24" width="328.43" height="24.35"/>
        <path class="cls-4" d="M574.82,38.53c-5.61,0-9.47-4.16-9.47-10.15s3.89-10.15,9.5-10.15,9.53,4.16,9.53,10.15-3.92,10.15-9.55,10.15ZM574.84,21.54c-3.6,0-5.9,2.66-5.9,6.84s2.31,6.84,5.9,6.84,5.91-2.71,5.91-6.84-2.31-6.84-5.91-6.84Z"/>
        <path class="cls-4" d="M587.56,38.21v-19.62h6.87c5.8,0,9.8,4,9.8,9.85s-3.92,9.77-9.61,9.77h-7.06ZM591,21.75v13.29h3.3c3.92,0,6.31-2.52,6.31-6.6s-2.44-6.68-6.5-6.68h-3.11Z"/>
        <path class="cls-4" d="M618.1,31.44v6.76h-3.44v-19.62h7.76c3.95,0,6.5,2.58,6.5,6.42s-2.58,6.44-6.5,6.44h-4.32ZM618.1,21.65v6.74h3.6c2.36,0,3.62-1.26,3.62-3.41s-1.29-3.33-3.57-3.33h-3.65Z"/>
        <path class="cls-4" d="M631.81,38.21v-19.62h7.49c4.46,0,7.06,2.25,7.06,6.12,0,2.63-1.24,4.51-3.54,5.45l3.73,8.05h-3.76l-3.33-7.33h-4.21v7.33h-3.44ZM635.24,27.85h4.05c2.17,0,3.46-1.15,3.46-3.14s-1.29-3.06-3.46-3.06h-4.05v6.2Z"/>
        <path class="cls-4" d="M658.08,38.53c-5.61,0-9.47-4.16-9.47-10.15s3.89-10.15,9.5-10.15,9.53,4.16,9.53,10.15-3.92,10.15-9.55,10.15ZM658.11,21.54c-3.6,0-5.9,2.66-5.9,6.84s2.31,6.84,5.9,6.84,5.91-2.71,5.91-6.84-2.31-6.84-5.91-6.84Z"/>
        <path class="cls-4" d="M674.26,30.18v8.03h-3.44v-19.62h12.13v3.17h-8.7v5.34h7.3v3.09h-7.3Z"/>
        <path class="cls-4" d="M686.04,38.21v-19.62h12.19v3.17h-8.75v5.05h7.84v3.03h-7.84v5.21h8.75v3.17h-12.19Z"/>
        <path class="cls-4" d="M707.8,18.24c3.97,0,6.5,2.2,6.6,5.74h-3.44c-.08-1.69-1.29-2.68-3.22-2.68-2.12,0-3.49,1.02-3.49,2.66,0,1.4.75,2.17,2.39,2.55l3.09.67c3.35.72,4.99,2.44,4.99,5.37,0,3.65-2.85,6.01-7.17,6.01s-6.92-2.23-7-5.74h3.44c.03,1.66,1.37,2.66,3.57,2.66s3.73-.99,3.73-2.63c0-1.32-.67-2.09-2.28-2.44l-3.11-.7c-3.33-.72-5.07-2.63-5.07-5.64,0-3.44,2.84-5.82,6.98-5.82Z"/>
        <path class="cls-4" d="M716.57,31.52h3.3v1.15c0,1.5.83,2.68,2.76,2.68s2.74-1.1,2.74-2.82v-13.96h3.44v14.14c0,3.46-2.42,5.82-6.15,5.82-4.03,0-6.09-2.5-6.09-5.88v-1.15Z"/>
        <path class="cls-4" d="M741.37,38.53c-5.61,0-9.47-4.16-9.47-10.15s3.89-10.15,9.5-10.15,9.53,4.16,9.53,10.15-3.92,10.15-9.55,10.15ZM741.4,21.54c-3.6,0-5.9,2.66-5.9,6.84s2.31,6.84,5.9,6.84,5.91-2.71,5.91-6.84-2.31-6.84-5.91-6.84Z"/>
        <path class="cls-4" d="M754.11,38.21v-19.62h3.41l9.21,13.9v-13.9h3.38v19.62h-3.38l-9.23-13.9v13.9h-3.38Z"/>
        <path class="cls-4" d="M772.57,38.21l7.09-19.62h3.52l7.09,19.62h-3.62l-1.58-4.54h-7.33l-1.58,4.54h-3.57ZM778.75,30.77h5.31l-2.25-6.33c-.16-.51-.35-1.1-.4-1.5-.08.38-.24.97-.43,1.5l-2.23,6.33Z"/>
        <path class="cls-4" d="M796.16,35.04h8.21v3.17h-11.65v-19.62h3.44v16.45Z"/>
        <path class="cls-4" d="M810.6,38.21h-3.44v-19.62h3.44v19.62Z"/>
        <path class="cls-4" d="M820.8,18.24c3.97,0,6.5,2.2,6.6,5.74h-3.44c-.08-1.69-1.29-2.68-3.22-2.68-2.12,0-3.49,1.02-3.49,2.66,0,1.4.75,2.17,2.39,2.55l3.09.67c3.35.72,4.99,2.44,4.99,5.37,0,3.65-2.85,6.01-7.17,6.01s-6.92-2.23-7-5.74h3.44c.03,1.66,1.37,2.66,3.57,2.66s3.73-.99,3.73-2.63c0-1.32-.67-2.09-2.28-2.44l-3.11-.7c-3.33-.72-5.07-2.63-5.07-5.64,0-3.44,2.84-5.82,6.98-5.82Z"/>
        <path class="cls-4" d="M828.84,18.59h14.92v3.17h-5.74v16.45h-3.44v-16.45h-5.74v-3.17Z"/>
        <path class="cls-4" d="M853.96,38.53c-5.61,0-9.47-4.16-9.47-10.15s3.89-10.15,9.5-10.15,9.53,4.16,9.53,10.15-3.92,10.15-9.55,10.15ZM853.99,21.54c-3.6,0-5.9,2.66-5.9,6.84s2.31,6.84,5.9,6.84,5.91-2.71,5.91-6.84-2.31-6.84-5.91-6.84ZM855.22,17.19h-2.42l2.01-3.97h3.03l-2.63,3.97Z"/>
        <path class="cls-4" d="M864.21,18.59h3.57l3.11,10.36c.29,1.07.59,2.17.89,3.89.32-1.74.62-2.76.97-3.89l3.09-10.36h3.78l3.03,10.36c.32,1.1.62,2.23.94,3.89.38-1.83.64-2.87.94-3.87l3.17-10.39h3.49l-5.96,19.62h-3.33l-4.19-14.28-4.27,14.28h-3.38l-5.85-19.62Z"/>
      </g>
    </g>
  </g>
</svg>