<?xml version="1.0" encoding="UTF-8"?>
<svg id="Layer_2" data-name="Layer 2" xmlns="http://www.w3.org/2000/svg" viewBox="0 0 38.87 49.98">
  <defs>
    <style>
      .cls-1 {
        fill: #00ce7c;
      }
    </style>
  </defs>
  <g id="Layer_1-2" data-name="Layer 1">
    <path class="cls-1" d="M23.05,49.22c-.28.23-.57.42-.87.56s-.64.21-1.01.21-.74-.08-1.11-.24-.69-.38-.97-.66c-1.9-2.04-3.3-4.12-4.2-6.25s-1.35-4.37-1.35-6.73c0-1.71.25-3.52.76-5.41.51-1.9,1.39-4.35,2.64-7.36,1.06-2.64,1.8-4.66,2.22-6.07.42-1.41.62-2.72.62-3.92,0-1.57-.35-3.04-1.04-4.41s-1.78-2.74-3.26-4.13c-.28-.28-.5-.6-.66-.97s-.24-.74-.24-1.11.07-.71.21-1.01.32-.59.56-.87c.28-.28.59-.49.94-.62s.71-.21,1.08-.21.72.07,1.04.21.62.32.9.56c2.04,1.9,3.55,3.89,4.55,5.97.99,2.08,1.49,4.28,1.49,6.59,0,1.62-.24,3.32-.73,5.1-.49,1.78-1.33,4.11-2.53,6.98-1.16,2.78-1.94,4.91-2.36,6.39s-.62,2.89-.62,4.23c0,1.62.34,3.18,1.01,4.69.67,1.5,1.7,3.02,3.09,4.55.23.28.42.58.56.9s.21.67.21,1.04-.07.73-.21,1.08-.37.66-.69.94ZM36.58,49.22c-.28.23-.57.42-.87.56s-.64.21-1.01.21-.74-.08-1.11-.24-.69-.38-.97-.66c-1.9-2.04-3.3-4.11-4.2-6.21-.9-2.11-1.35-4.34-1.35-6.7,0-1.71.25-3.54.76-5.48.51-1.94,1.39-4.4,2.64-7.36,1.06-2.64,1.8-4.65,2.22-6.04s.62-2.68.62-3.89c0-1.57-.35-3.07-1.04-4.48-.69-1.41-1.78-2.79-3.26-4.13-.28-.28-.49-.59-.62-.94s-.21-.71-.21-1.08.06-.71.17-1.01.29-.59.52-.87c.28-.28.6-.5.97-.66s.74-.24,1.11-.24.71.07,1.01.21.59.32.87.56c2.04,1.9,3.55,3.89,4.55,5.97.99,2.08,1.49,4.28,1.49,6.59,0,1.62-.24,3.32-.73,5.1s-1.33,4.13-2.53,7.05c-1.16,2.78-1.94,4.91-2.36,6.39s-.62,2.87-.62,4.16c0,1.62.35,3.2,1.04,4.75.69,1.55,1.74,3.07,3.12,4.55.23.28.4.58.52.9s.17.65.17.97c0,.37-.07.74-.21,1.11s-.37.67-.69.9ZM9.51,49.22c-.28.23-.57.42-.87.56s-.64.21-1.01.21-.74-.08-1.11-.24-.69-.38-.97-.66c-1.9-2.04-3.3-4.11-4.2-6.21s-1.35-4.34-1.35-6.7c0-1.71.25-3.54.76-5.48.51-1.94,1.39-4.4,2.64-7.36,1.06-2.64,1.8-4.65,2.22-6.04.42-1.39.62-2.68.62-3.89,0-1.57-.35-3.07-1.04-4.48-.69-1.41-1.78-2.79-3.26-4.13-.32-.28-.56-.59-.69-.94s-.21-.71-.21-1.08.07-.72.21-1.04.32-.62.56-.9c.28-.28.59-.49.94-.62s.71-.21,1.08-.21.72.07,1.04.21.62.32.9.56c2.04,1.9,3.55,3.88,4.55,5.94.99,2.06,1.49,4.27,1.49,6.63,0,1.62-.23,3.32-.69,5.1-.46,1.78-1.3,4.11-2.5,6.98-1.16,2.78-1.94,4.91-2.36,6.39s-.62,2.89-.62,4.23c0,1.62.34,3.2,1.01,4.75.67,1.55,1.7,3.07,3.09,4.55.23.28.4.58.52.9s.17.65.17.97c0,.37-.07.74-.21,1.11s-.37.67-.69.9Z"/>
  </g>
</svg>