<?xml version="1.0" encoding="UTF-8"?>
<svg id="Layer_2" data-name="Layer 2" xmlns="http://www.w3.org/2000/svg" viewBox="0 0 150 150">
  <defs>
    <style>
      .cls-1 {
        fill: #002a3a;
      }

      .cls-2 {
        fill: #00ce7c;
      }

      .cls-3 {
        fill: #f1f2f2;
      }
    </style>
  </defs>
  <g id="Layer_1-2" data-name="Layer 1">
    <g>
      <rect class="cls-3" width="150" height="150" rx="16" ry="16"/>
      <g>
        <g>
          <path class="cls-1" d="M26.89,66.04c0-4.25.72-7.96,2.15-11.13,1.44-3.17,3.45-5.66,6.04-7.47,2.59-1.81,5.62-2.71,9.09-2.71s6.56.9,9.15,2.71c2.59,1.81,4.61,4.3,6.04,7.47,1.44,3.17,2.15,6.88,2.15,11.13s-.69,7.91-2.07,11.08c-1.38,3.17-3.36,5.63-5.93,7.39-2.57,1.75-5.69,2.63-9.34,2.63s-6.67-.88-9.26-2.63c-2.59-1.75-4.58-4.21-5.96-7.39-1.38-3.17-2.07-6.86-2.07-11.08ZM33.94,66.04c0,3.13.41,5.81,1.23,8.03.82,2.22,2,3.9,3.52,5.04,1.53,1.14,3.36,1.71,5.48,1.71s4.06-.57,5.57-1.71c1.51-1.14,2.68-2.82,3.5-5.04.82-2.22,1.23-4.9,1.23-8.03s-.41-5.98-1.23-8.2c-.82-2.22-1.99-3.91-3.5-5.06-1.51-1.16-3.37-1.73-5.57-1.73s-3.95.58-5.48,1.73c-1.53,1.16-2.71,2.84-3.52,5.06-.82,2.22-1.23,4.95-1.23,8.2Z"/>
          <path class="cls-1" d="M80.44,87.08c-2.84,0-5.33-.57-7.47-1.71s-3.8-2.74-4.98-4.81c-1.18-2.07-1.76-4.49-1.76-7.25h7.05c0,2.31.65,4.12,1.96,5.43,1.31,1.31,3.1,1.96,5.37,1.96,1.6,0,2.99-.33,4.17-.98,1.18-.65,2.09-1.59,2.74-2.83.65-1.23.98-2.67.98-4.31s-.31-2.96-.92-4.17c-.62-1.21-1.5-2.15-2.66-2.83-1.16-.67-2.56-1.01-4.2-1.01s-3.01.35-4.34,1.04c-1.32.69-2.36,1.58-3.11,2.66l-6.32-1.34,5.04-21.43h21.32v6.6h-18.02l2.41-2.24-3.3,13.04-2.41,1.01c.9-1.72,2.25-3.03,4.06-3.94,1.81-.91,3.85-1.37,6.13-1.37,2.72,0,5.1.58,7.13,1.73,2.03,1.16,3.62,2.75,4.76,4.78,1.14,2.03,1.71,4.39,1.71,7.08,0,2.95-.64,5.54-1.93,7.78s-3.08,3.98-5.37,5.23c-2.29,1.25-4.97,1.88-8.03,1.88Z"/>
        </g>
        <g>
          <path class="cls-1" d="M36.83,97.97c-.79,0-1.47.18-2.03.54-.56.36-.99.87-1.29,1.51-.3.64-.45,1.4-.45,2.28s.16,1.65.48,2.27.76,1.09,1.33,1.41,1.22.48,1.95.48c.54,0,1.01-.07,1.43-.21.41-.14.76-.34,1.05-.61s.51-.6.67-.98.24-.81.24-1.29v-1.05l.99,1.01h-4.63v-1.86h5.6v6.77h-1.78l-.18-1.94.25.25c-.18.36-.45.69-.83.97-.38.29-.83.51-1.34.67s-1.08.24-1.68.24c-1.12,0-2.11-.26-2.97-.77-.86-.51-1.54-1.23-2.03-2.15-.49-.92-.73-2-.73-3.25s.25-2.3.75-3.24,1.2-1.68,2.11-2.22c.91-.54,1.96-.81,3.16-.81.92,0,1.76.17,2.51.5.75.34,1.36.81,1.84,1.41.48.6.77,1.32.88,2.14h-2.23c-.19-.71-.56-1.24-1.12-1.57-.56-.33-1.2-.5-1.93-.5Z"/>
          <path class="cls-1" d="M46.06,108.23l-3.59-12.05h2.19l1.91,6.36c.1.33.19.68.28,1.05.09.37.18.82.26,1.34.1-.54.19-.99.29-1.34.09-.36.19-.71.29-1.05l1.91-6.36h2.32l1.86,6.36c.1.34.19.7.29,1.07.09.37.19.81.29,1.32.11-.56.21-1.02.3-1.38.09-.36.18-.68.27-.98l1.94-6.39h2.14l-3.66,12.05h-2.04l-2.57-8.77-2.64,8.77h-2.06Z"/>
          <path class="cls-1" d="M60.76,108.23h-2.18l4.35-12.05h2.16l4.35,12.05h-2.23l-.97-2.79h-4.5l-.99,2.79ZM63.75,99.78l-1.38,3.89h3.28l-1.38-3.89c-.04-.16-.09-.33-.15-.49-.06-.17-.09-.31-.1-.43-.02.11-.06.25-.11.42-.05.17-.1.34-.16.5Z"/>
          <path class="cls-1" d="M72.2,108.23h-2.11v-12.05h4.6c1.36,0,2.43.33,3.19.99s1.15,1.58,1.15,2.77c0,.8-.18,1.49-.55,2.05-.37.57-.91,1-1.62,1.29l2.29,4.94h-2.31l-2.04-4.5h-2.59v4.5ZM72.2,98.07v3.81h2.49c.67,0,1.19-.17,1.57-.51.37-.34.56-.81.56-1.42s-.19-1.07-.56-1.39c-.37-.32-.9-.49-1.57-.49h-2.49Z"/>
          <path class="cls-1" d="M81.28,108.23h-2.17l4.35-12.05h2.16l4.35,12.05h-2.22l-.97-2.79h-4.5l-.99,2.79ZM84.26,99.78l-1.38,3.89h3.28l-1.38-3.89c-.04-.16-.09-.33-.15-.49s-.09-.31-.1-.43c-.02.11-.06.25-.11.42-.05.17-.1.34-.16.5Z"/>
          <path class="cls-1" d="M92.69,108.23h-2.08v-12.05h2.09l6.26,9.48h-.61v-9.48h2.08v12.05h-2.08l-6.28-9.46h.61v9.46Z"/>
          <path class="cls-1" d="M107.32,108.43c-1.18,0-2.2-.26-3.06-.77s-1.53-1.23-2.01-2.16c-.48-.93-.72-2.02-.72-3.29s.24-2.35.73-3.28c.49-.93,1.18-1.66,2.07-2.18.89-.52,1.92-.77,3.08-.77.96,0,1.81.18,2.57.53s1.38.84,1.88,1.47c.49.63.81,1.38.94,2.25h-2.23c-.21-.7-.6-1.25-1.16-1.64-.57-.39-1.26-.58-2.07-.58-.73,0-1.36.17-1.9.51s-.96.82-1.26,1.45c-.3.63-.44,1.37-.44,2.24s.15,1.57.44,2.2c.3.63.72,1.12,1.26,1.47s1.18.52,1.9.52c.82,0,1.53-.2,2.12-.59s.98-.93,1.18-1.6h2.19c-.15.83-.49,1.57-1,2.21-.51.64-1.15,1.13-1.93,1.48-.77.35-1.64.53-2.6.53Z"/>
          <path class="cls-1" d="M112.86,104.84v-.71h2.03v.71c0,.46.14.85.41,1.17.27.32.7.48,1.29.48s1.02-.16,1.29-.47.4-.73.4-1.24v-8.59h2.11v8.7c0,.69-.16,1.31-.47,1.85-.31.54-.75.96-1.31,1.26-.56.3-1.23.45-1.99.45-.81,0-1.5-.16-2.06-.47-.56-.31-.98-.74-1.26-1.29s-.42-1.16-.42-1.85Z"/>
          <path class="cls-1" d="M124.18,96.19v12.05h-2.11v-12.05h2.11Z"/>
        </g>
        <path class="cls-2" d="M123.74,42.53v43.73c0,.86-.76,1.56-1.7,1.56h-15.35c-.94,0-1.7-.7-1.7-1.56v-43.73c0-.86.76-1.56,1.7-1.56h15.35c.94,0,1.7.7,1.7,1.56"/>
        <g>
          <path class="cls-1" d="M110.38,74.19h8.69v1.52h-8.69v-1.52ZM119.07,75.45h-1.4v-4.89h1.4v4.89Z"/>
          <path class="cls-1" d="M119.07,67.99v1.57l-8.69-3.14v-1.56l8.69-3.14v1.6l-2.01.7v3.25l2.01.71ZM112.97,65.84l2.8,1v-2.37l-2.8,1c-.12.03-.24.07-.36.11-.12.04-.22.06-.31.07.08.02.18.04.3.08.12.04.24.07.36.11Z"/>
          <path class="cls-1" d="M111.78,60.8h-1.4v-6.61h1.4v6.61ZM111.1,56.73h7.96v1.52h-7.96v-1.52Z"/>
        </g>
      </g>
    </g>
  </g>
</svg>