<?xml version="1.0" encoding="UTF-8"?>
<svg id="Layer_2" data-name="Layer 2" xmlns="http://www.w3.org/2000/svg" viewBox="0 0 41.04 49.87">
  <defs>
    <style>
      .cls-1 {
        fill: #00ce7c;
      }
    </style>
  </defs>
  <g id="Layer_1-2" data-name="Layer 1">
    <path class="cls-1" d="M39.42,21.34c-.48-1.1-1.04-2.14-1.67-3.12l3.16-3.16-4.85-4.85-2.95,2.95c-1.38-1.07-2.91-1.98-4.59-2.71-1.81-.79-3.72-1.29-5.73-1.5v-4.44h4.13V0h-12.82v4.51h4.13v4.44c-2.01.21-3.92.71-5.73,1.5-2.49,1.08-4.66,2.55-6.5,4.39-1.84,1.84-3.31,4.01-4.39,6.5s-1.62,5.16-1.62,8.01.54,5.52,1.62,8.01c1.08,2.49,2.55,4.66,4.39,6.5,1.84,1.84,4.01,3.31,6.5,4.39,2.49,1.08,5.16,1.62,8.01,1.62s5.52-.54,8.01-1.62c2.49-1.08,4.66-2.55,6.5-4.39,1.84-1.84,3.31-4.01,4.39-6.5,1.08-2.49,1.62-5.16,1.62-8.01s-.54-5.52-1.62-8.01ZM22.8,31h-4.56v-15.62h4.56v15.62Z"/>
  </g>
</svg>