<?xml version="1.0" encoding="UTF-8"?>
<svg id="Layer_2" data-name="Layer 2" xmlns="http://www.w3.org/2000/svg" viewBox="0 0 150 150">
  <defs>
    <style>
      .cls-1 {
        fill: #002a3a;
      }

      .cls-2 {
        fill: #00ce7c;
      }

      .cls-3 {
        fill: #f1f2f2;
      }
    </style>
  </defs>
  <g id="Layer_1-2" data-name="Layer 1">
    <g>
      <rect class="cls-3" width="150" height="150" rx="16" ry="16"/>
      <g>
        <g>
          <path class="cls-1" d="M28.48,94.37c0-.77.2-1.45.59-2.04.4-.59.95-1.05,1.65-1.38.7-.33,1.52-.5,2.44-.5s1.66.16,2.32.47c.65.31,1.17.76,1.53,1.33.37.58.56,1.26.59,2.05h-2.31c-.02-.56-.23-1.01-.61-1.32-.38-.32-.9-.48-1.55-.48-.71,0-1.28.16-1.7.48s-.64.75-.64,1.31c0,.47.13.84.39,1.11.26.27.66.47,1.22.6l2.07.47c1.13.24,1.97.65,2.52,1.23.55.58.83,1.37.83,2.35,0,.8-.2,1.51-.59,2.13s-.96,1.08-1.68,1.41c-.73.33-1.58.5-2.55.5s-1.74-.16-2.43-.48c-.7-.32-1.24-.77-1.63-1.34-.39-.58-.6-1.25-.62-2.04h2.31c.01.55.23.99.66,1.31s1.01.48,1.74.48,1.38-.16,1.83-.48c.45-.32.68-.74.68-1.27,0-.46-.12-.82-.36-1.09s-.63-.46-1.17-.57l-2.09-.47c-1.12-.24-1.96-.68-2.54-1.31-.58-.63-.86-1.46-.86-2.48Z"/>
          <path class="cls-1" d="M38.21,92.82v-2.13h10.02v2.13h-10.02ZM44.37,91.8v12.07h-2.31v-12.07h2.31Z"/>
          <path class="cls-1" d="M50.57,103.87h-2.38l4.76-13.17h2.36l4.76,13.17h-2.43l-1.06-3.04h-4.92l-1.08,3.04ZM53.83,94.62l-1.51,4.25h3.59l-1.51-4.25c-.05-.18-.1-.36-.16-.54-.06-.18-.1-.34-.11-.47-.02.12-.06.27-.12.46-.05.19-.11.37-.17.55Z"/>
          <path class="cls-1" d="M63.45,103.87h-2.27v-13.17h2.29l6.85,10.36h-.67v-10.36h2.27v13.17h-2.27l-6.86-10.34h.67v10.34Z"/>
          <path class="cls-1" d="M79.04,103.87h-4.74v-13.17h4.61c1.3,0,2.44.28,3.42.84.99.56,1.76,1.33,2.32,2.32.56.99.84,2.14.84,3.45s-.27,2.42-.82,3.41c-.55.99-1.3,1.76-2.27,2.32-.97.55-2.09.83-3.36.83ZM76.6,91.76v11.06l-1.1-1.08h3.32c.88,0,1.63-.18,2.27-.54s1.12-.87,1.46-1.53c.34-.66.5-1.45.5-2.36s-.17-1.74-.52-2.41c-.35-.67-.85-1.18-1.5-1.54s-1.43-.54-2.34-.54h-3.19l1.1-1.06Z"/>
          <path class="cls-1" d="M88.21,103.87h-2.38l4.76-13.17h2.36l4.76,13.17h-2.43l-1.06-3.04h-4.92l-1.08,3.04ZM91.47,94.62l-1.51,4.25h3.59l-1.51-4.25c-.05-.18-.1-.36-.16-.54-.06-.18-.1-.34-.11-.47-.02.12-.06.27-.12.46-.05.19-.11.37-.17.55Z"/>
          <path class="cls-1" d="M101.13,103.87h-2.31v-13.17h5.03c1.49,0,2.65.36,3.49,1.08s1.25,1.73,1.25,3.03c0,.88-.2,1.62-.6,2.24-.4.62-.99,1.09-1.78,1.42l2.5,5.41h-2.52l-2.23-4.92h-2.83v4.92ZM101.13,92.75v4.16h2.72c.73,0,1.3-.19,1.71-.56.41-.37.61-.89.61-1.55s-.2-1.17-.61-1.52c-.41-.35-.98-.53-1.71-.53h-2.72Z"/>
          <path class="cls-1" d="M115.09,103.87h-4.74v-13.17h4.61c1.3,0,2.44.28,3.42.84.99.56,1.76,1.33,2.32,2.32.56.99.84,2.14.84,3.45s-.27,2.42-.82,3.41c-.55.99-1.3,1.76-2.27,2.32-.97.55-2.09.83-3.36.83ZM112.66,91.76v11.06l-1.1-1.08h3.32c.88,0,1.63-.18,2.27-.54s1.12-.87,1.46-1.53c.34-.66.5-1.45.5-2.36s-.17-1.74-.52-2.41c-.35-.67-.85-1.18-1.5-1.54s-1.43-.54-2.34-.54h-3.19l1.1-1.06Z"/>
        </g>
        <g>
          <path class="cls-2" d="M35.43,48.18v34h-5.77v-34h5.77Z"/>
          <path class="cls-2" d="M48.87,48.18v34h-5.77v-34h5.77ZM56.13,70.46h-8.66v-5.3h7.44c1.98,0,3.5-.52,4.53-1.56,1.04-1.04,1.56-2.49,1.56-4.35s-.52-3.29-1.56-4.28c-1.04-.99-2.52-1.49-4.44-1.49h-8.07v-5.3h9.2c2.22,0,4.15.47,5.77,1.4,1.62.93,2.89,2.23,3.79,3.88.9,1.66,1.35,3.6,1.35,5.84s-.45,4.1-1.35,5.79c-.9,1.69-2.17,3.01-3.79,3.95-1.62.95-3.55,1.42-5.77,1.42Z"/>
          <path class="cls-2" d="M75.25,58.19l7.12-10h6.58l-9.29,12.79-1.44-.37c.66-.62,1.48-1.1,2.46-1.44.98-.34,1.93-.51,2.86-.51,2.25,0,4.24.5,5.95,1.51,1.71,1.01,3.05,2.4,4.01,4.19.96,1.78,1.44,3.82,1.44,6.12,0,2.42-.53,4.55-1.6,6.4-1.07,1.85-2.53,3.3-4.38,4.35-1.85,1.05-3.95,1.58-6.29,1.58s-4.5-.54-6.38-1.63-3.36-2.57-4.44-4.44c-1.08-1.88-1.62-3.98-1.62-6.3,0-1.4.16-2.69.47-3.88.32-1.19.84-2.46,1.58-3.79.74-1.33,1.72-2.85,2.95-4.56ZM76.15,70.46c0,1.4.28,2.62.83,3.67.56,1.05,1.32,1.88,2.3,2.46.98.59,2.11.88,3.41.88s2.37-.29,3.34-.88c.96-.59,1.72-1.41,2.28-2.46.56-1.05.83-2.28.83-3.67s-.28-2.57-.83-3.6c-.56-1.04-1.32-1.85-2.28-2.44-.96-.59-2.07-.88-3.34-.88s-2.44.3-3.43.88c-.99.59-1.76,1.4-2.3,2.44-.54,1.04-.81,2.24-.81,3.6Z"/>
          <path class="cls-2" d="M110.25,82.75c-2.29,0-4.29-.47-6.02-1.42s-3.07-2.28-4.01-4c-.95-1.72-1.42-3.73-1.42-6.02h5.68c0,1.92.53,3.43,1.58,4.51,1.05,1.09,2.5,1.63,4.33,1.63,1.29,0,2.41-.27,3.36-.81.95-.54,1.68-1.33,2.21-2.35.53-1.02.79-2.22.79-3.58s-.25-2.46-.74-3.47c-.5-1.01-1.21-1.79-2.14-2.35-.93-.56-2.06-.84-3.38-.84s-2.43.29-3.5.86-1.9,1.31-2.5,2.21l-5.1-1.12,4.06-17.81h17.18v5.49h-14.52l1.94-1.86-2.66,10.84-1.94.84c.72-1.43,1.81-2.52,3.27-3.28,1.46-.76,3.1-1.14,4.94-1.14,2.19,0,4.11.48,5.75,1.44,1.64.96,2.92,2.29,3.83,3.98.92,1.69,1.38,3.65,1.38,5.88,0,2.45-.52,4.6-1.56,6.46-1.04,1.86-2.48,3.31-4.33,4.35-1.85,1.04-4.01,1.56-6.47,1.56Z"/>
        </g>
      </g>
    </g>
  </g>
</svg>