<?xml version="1.0" encoding="UTF-8"?>
<svg id="Layer_2" data-name="Layer 2" xmlns="http://www.w3.org/2000/svg" viewBox="0 0 49.98 49.98">
  <defs>
    <style>
      .cls-1 {
        fill: #00ce7c;
      }
    </style>
  </defs>
  <g id="Layer_1-2" data-name="Layer 1">
    <path class="cls-1" d="M6.46,49.98c-1.81,0-3.34-.62-4.59-1.87-1.25-1.25-1.87-2.78-1.87-4.59V3.28C0,1.86.66.87,1.98.31,3.3-.25,4.45-.05,5.43.93l6.61,6.61-3.96,3.96,2.06,2.06,3.96-3.96,7.64,7.64-3.96,3.96,2.06,2.06,3.96-3.96,7.64,7.64-3.96,3.96,2.06,2.06,3.96-3.96,7.64,7.64-3.96,3.96,2.06,2.06,3.96-3.96,5.87,5.87c.98.98,1.19,2.13.62,3.45s-1.55,1.98-2.97,1.98H6.46ZM8.81,41.17h24.38L8.81,16.79v24.38Z"/>
  </g>
</svg>