<?xml version="1.0" encoding="UTF-8"?>
<svg id="Layer_2" data-name="Layer 2" xmlns="http://www.w3.org/2000/svg" viewBox="0 0 43.9 39.08">
  <defs>
    <style>
      .cls-1 {
        fill: #00ce7c;
      }
    </style>
  </defs>
  <g id="Layer_1-2" data-name="Layer 1">
    <g>
      <path class="cls-1" d="M0,6.58V2.19h2.19c1.17,0,2.31-.18,3.43-.55,1.12-.37,2.17-.91,3.16-1.65.99.73,2.04,1.27,3.16,1.62,1.12.35,2.26.52,3.43.52s2.3-.17,3.4-.52c1.1-.35,2.16-.89,3.18-1.62.99.73,2.04,1.27,3.16,1.62,1.12.35,2.26.52,3.43.52s2.3-.17,3.4-.52c1.1-.35,2.16-.89,3.18-1.62,1.02.73,2.09,1.28,3.18,1.65,1.1.37,2.23.55,3.4.55h2.19v4.39h-2.19c-1.13,0-2.25-.14-3.35-.41-1.1-.27-2.18-.69-3.24-1.23-1.06.55-2.14.96-3.24,1.23-1.1.27-2.21.41-3.35.41s-2.25-.14-3.35-.41c-1.1-.27-2.18-.69-3.24-1.23-1.06.55-2.14.96-3.24,1.23-1.1.27-2.21.41-3.35.41s-2.25-.14-3.35-.41c-1.1-.27-2.18-.69-3.24-1.23-1.06.55-2.14.96-3.24,1.23-1.1.27-2.21.41-3.35.41H0Z"/>
      <path class="cls-1" d="M0,17.42v-4.39h2.19c1.17,0,2.31-.18,3.43-.55,1.12-.37,2.17-.91,3.16-1.65.99.73,2.04,1.27,3.16,1.62,1.12.35,2.26.52,3.43.52s2.3-.17,3.4-.52c1.1-.35,2.16-.89,3.18-1.62.99.73,2.04,1.27,3.16,1.62,1.12.35,2.26.52,3.43.52s2.3-.17,3.4-.52c1.1-.35,2.16-.89,3.18-1.62,1.02.73,2.09,1.28,3.18,1.65,1.1.37,2.23.55,3.4.55h2.19v4.39h-2.19c-1.13,0-2.25-.14-3.35-.41-1.1-.27-2.18-.69-3.24-1.23-1.06.55-2.14.96-3.24,1.23-1.1.27-2.21.41-3.35.41s-2.25-.14-3.35-.41c-1.1-.27-2.18-.69-3.24-1.23-1.06.55-2.14.96-3.24,1.23-1.1.27-2.21.41-3.35.41s-2.25-.14-3.35-.41c-1.1-.27-2.18-.69-3.24-1.23-1.06.55-2.14.96-3.24,1.23-1.1.27-2.21.41-3.35.41H0Z"/>
      <path class="cls-1" d="M0,28.25v-4.39h2.19c1.17,0,2.31-.18,3.43-.55,1.12-.37,2.17-.91,3.16-1.65.99.73,2.04,1.27,3.16,1.62,1.12.35,2.26.52,3.43.52s2.3-.17,3.4-.52c1.1-.35,2.16-.89,3.18-1.62.99.73,2.04,1.27,3.16,1.62,1.12.35,2.26.52,3.43.52s2.3-.17,3.4-.52c1.1-.35,2.16-.89,3.18-1.62,1.02.73,2.09,1.28,3.18,1.65,1.1.37,2.23.55,3.4.55h2.19v4.39h-2.19c-1.13,0-2.25-.14-3.35-.41-1.1-.27-2.18-.69-3.24-1.23-1.06.55-2.14.96-3.24,1.23-1.1.27-2.21.41-3.35.41s-2.25-.14-3.35-.41c-1.1-.27-2.18-.69-3.24-1.23-1.06.55-2.14.96-3.24,1.23-1.1.27-2.21.41-3.35.41s-2.25-.14-3.35-.41c-1.1-.27-2.18-.69-3.24-1.23-1.06.55-2.14.96-3.24,1.23-1.1.27-2.21.41-3.35.41H0Z"/>
      <path class="cls-1" d="M0,39.08v-4.39h2.19c1.17,0,2.31-.18,3.43-.55,1.12-.37,2.17-.91,3.16-1.65.99.73,2.04,1.27,3.16,1.62,1.12.35,2.26.52,3.43.52s2.3-.17,3.4-.52c1.1-.35,2.16-.89,3.18-1.62.99.73,2.04,1.27,3.16,1.62,1.12.35,2.26.52,3.43.52s2.3-.17,3.4-.52c1.1-.35,2.16-.89,3.18-1.62,1.02.73,2.09,1.28,3.18,1.65,1.1.37,2.23.55,3.4.55h2.19v4.39h-2.19c-1.13,0-2.25-.14-3.35-.41s-2.18-.69-3.24-1.23c-1.06.55-2.14.96-3.24,1.23s-2.21.41-3.35.41-2.25-.14-3.35-.41-2.18-.69-3.24-1.23c-1.06.55-2.14.96-3.24,1.23s-2.21.41-3.35.41-2.25-.14-3.35-.41-2.18-.69-3.24-1.23c-1.06.55-2.14.96-3.24,1.23s-2.21.41-3.35.41H0Z"/>
    </g>
  </g>
</svg>