<?xml version="1.0" encoding="UTF-8"?>
<svg id="Layer_2" data-name="Layer 2" xmlns="http://www.w3.org/2000/svg" viewBox="0 0 150 150">
  <defs>
    <style>
      .cls-1 {
        fill: #002a3a;
      }

      .cls-2 {
        fill: #002b49;
      }

      .cls-3 {
        fill: #00ce7c;
      }

      .cls-4 {
        fill: #f1f2f2;
      }
    </style>
  </defs>
  <g id="Layer_1-2" data-name="Layer 1">
    <g>
      <rect class="cls-4" width="150" height="150" rx="16" ry="16"/>
      <g>
        <path class="cls-3" d="M120.41,49.15H30.59c-1.95,0-3.54-1.59-3.54-3.54v-16.07c0-1.95,1.59-3.54,3.54-3.54h89.82c1.95,0,3.54,1.6,3.54,3.54v16.07c0,1.95-1.59,3.54-3.54,3.54"/>
        <g>
          <path class="cls-1" d="M31.11,109.81v10.63h-1.86v-10.63h1.86ZM29.57,120.44v-1.71h5.97v1.71h-5.97Z"/>
          <path class="cls-1" d="M36.56,116.56v-6.75h1.86v6.63c0,.77.2,1.35.61,1.76.41.41.98.61,1.73.61s1.34-.21,1.74-.62c.41-.41.61-1,.61-1.75v-6.63h1.86v6.75c0,.82-.17,1.54-.52,2.14-.34.61-.83,1.08-1.46,1.41s-1.38.5-2.24.5-1.59-.17-2.22-.49c-.63-.33-1.12-.8-1.46-1.41-.34-.61-.52-1.33-.52-2.15Z"/>
          <path class="cls-1" d="M48.62,120.44h-1.8v-10.63h1.8l3.43,8.46,3.43-8.46h1.83v10.63h-1.8v-4.62c0-.36,0-.67.01-.92,0-.25.02-.47.03-.67,0-.19.03-.39.06-.58l-2.7,6.79h-1.71l-2.69-6.77c.05.32.08.73.09,1.22s.02,1.08.02,1.74v3.81Z"/>
          <path class="cls-1" d="M65.83,120.44h-6.6v-10.63h6.6v1.72h-5.39l.65-.6v3.33h4.24v1.64h-4.24v3.42l-.65-.6h5.39v1.71Z"/>
          <path class="cls-1" d="M69.24,120.44h-1.83v-10.63h1.85l5.52,8.36h-.54v-8.36h1.83v10.63h-1.83l-5.54-8.34h.54v8.34Z"/>
          <path class="cls-1" d="M87.67,115.12c0,1.08-.22,2.03-.65,2.86-.44.83-1.04,1.48-1.82,1.94s-1.67.7-2.69.7-1.9-.23-2.67-.7-1.38-1.11-1.81-1.93c-.43-.82-.65-1.77-.65-2.85s.22-2.04.65-2.87c.44-.83,1.04-1.47,1.81-1.94.77-.46,1.67-.7,2.68-.7s1.91.23,2.68.7c.77.47,1.37,1.11,1.81,1.93.44.82.65,1.78.65,2.86ZM85.72,115.12c0-.76-.13-1.41-.39-1.96-.26-.55-.63-.98-1.1-1.29-.47-.3-1.04-.46-1.7-.46s-1.21.15-1.69.46c-.48.31-.85.73-1.11,1.29-.26.55-.39,1.21-.39,1.96s.13,1.41.39,1.97c.26.56.63.99,1.11,1.29.48.3,1.04.45,1.69.45s1.23-.15,1.7-.46.84-.74,1.1-1.29c.26-.56.39-1.21.39-1.96ZM84.62,106.91l-1.42,2.15h-1.31l1.09-2.15h1.64Z"/>
          <path class="cls-1" d="M91.19,120.44l-3.17-10.63h1.93l1.69,5.61c.09.29.17.6.25.92.08.33.15.72.23,1.18.09-.47.17-.87.25-1.18.08-.31.17-.62.25-.92l1.69-5.61h2.05l1.64,5.61c.09.3.17.62.25.94.08.33.17.72.25,1.16.1-.49.19-.9.27-1.21.08-.31.16-.6.24-.86l1.71-5.64h1.89l-3.23,10.63h-1.8l-2.27-7.73-2.33,7.73h-1.82Z"/>
          <path class="cls-1" d="M104.17,120.44h-1.76l4.14-10.61h1.77l-4.16,10.61Z"/>
          <path class="cls-1" d="M111.27,120.44l-3.17-10.63h1.93l1.69,5.61c.09.29.17.6.25.92.08.33.15.72.23,1.18.09-.47.17-.87.25-1.18.08-.31.17-.62.25-.92l1.69-5.61h2.05l1.64,5.61c.09.3.17.62.25.94.08.33.17.72.25,1.16.1-.49.19-.9.27-1.21.08-.31.16-.6.24-.86l1.71-5.64h1.89l-3.23,10.63h-1.8l-2.27-7.73-2.33,7.73h-1.82Z"/>
        </g>
        <g>
          <path class="cls-3" d="M38.41,65.16h-8.79v-6.51h15.49v41.4h-6.7v-34.89Z"/>
          <path class="cls-3" d="M58.12,70.83l8.68-12.18h8.02l-11.31,15.57-1.76-.45c.8-.75,1.8-1.34,2.99-1.76,1.19-.42,2.35-.62,3.49-.62,2.75,0,5.16.61,7.25,1.84,2.09,1.23,3.71,2.93,4.89,5.1,1.17,2.17,1.76,4.65,1.76,7.45,0,2.95-.65,5.54-1.95,7.79-1.3,2.25-3.08,4.01-5.33,5.29-2.25,1.28-4.8,1.93-7.66,1.93s-5.48-.66-7.77-1.98-4.09-3.12-5.41-5.41c-1.32-2.28-1.98-4.84-1.98-7.67,0-1.7.19-3.28.58-4.73.38-1.45,1.02-2.99,1.92-4.62.9-1.62,2.09-3.47,3.6-5.55ZM59.22,85.78c0,1.7.34,3.19,1.02,4.47.68,1.28,1.61,2.29,2.8,3,1.19.72,2.57,1.08,4.15,1.08s2.89-.36,4.06-1.08,2.1-1.72,2.77-3c.68-1.28,1.02-2.78,1.02-4.47s-.34-3.12-1.02-4.39c-.68-1.26-1.6-2.26-2.77-2.97-1.17-.72-2.53-1.08-4.06-1.08s-2.96.36-4.17,1.08c-1.21.72-2.14,1.71-2.8,2.97s-.99,2.73-.99,4.39Z"/>
          <path class="cls-3" d="M86.9,79.44c0-4.3.7-8.06,2.11-11.27,1.41-3.21,3.39-5.73,5.93-7.56,2.54-1.83,5.52-2.75,8.92-2.75s6.43.92,8.98,2.75c2.54,1.83,4.52,4.35,5.93,7.56,1.41,3.21,2.11,6.97,2.11,11.27s-.68,8-2.03,11.21c-1.35,3.21-3.29,5.7-5.82,7.48-2.53,1.78-5.58,2.66-9.17,2.66s-6.54-.89-9.09-2.66c-2.54-1.77-4.49-4.27-5.85-7.48-1.35-3.21-2.03-6.95-2.03-11.21ZM93.82,79.44c0,3.17.4,5.88,1.21,8.13.8,2.25,1.96,3.95,3.46,5.1,1.5,1.15,3.29,1.73,5.38,1.73s3.98-.58,5.46-1.73c1.48-1.15,2.63-2.85,3.43-5.1.8-2.25,1.21-4.96,1.21-8.13s-.4-6.05-1.21-8.3c-.81-2.25-1.95-3.95-3.43-5.13-1.48-1.17-3.3-1.76-5.46-1.76s-3.88.59-5.38,1.76c-1.5,1.17-2.66,2.88-3.46,5.13-.81,2.25-1.21,5.01-1.21,8.3Z"/>
        </g>
        <g>
          <path class="cls-2" d="M34.84,34.64c0-.62.16-1.17.47-1.64.31-.47.75-.84,1.32-1.1.57-.26,1.22-.39,1.96-.39.69,0,1.3.12,1.81.37.52.25.92.59,1.22,1.05s.46.99.5,1.63h-1.49c-.04-.54-.24-.96-.6-1.26s-.85-.45-1.46-.45c-.68,0-1.23.16-1.64.47-.41.32-.62.75-.62,1.29,0,.44.13.8.38,1.06.25.27.63.46,1.14.58l1.79.42c.89.2,1.56.54,2.01,1.03.45.49.67,1.11.67,1.87,0,.65-.16,1.22-.47,1.7-.32.48-.76.85-1.34,1.11-.58.26-1.25.39-2.03.39-.73,0-1.38-.12-1.93-.37-.56-.25-.99-.6-1.31-1.05-.32-.46-.5-.99-.54-1.6h1.51c0,.52.22.94.63,1.24.41.31.96.46,1.64.46.72,0,1.3-.16,1.72-.48.43-.32.64-.75.64-1.28,0-.43-.12-.78-.36-1.05-.24-.27-.62-.47-1.14-.59l-1.79-.41c-.88-.2-1.55-.55-2.01-1.06-.46-.51-.68-1.15-.68-1.93Z"/>
          <path class="cls-2" d="M49.01,35.23h1.4v7.36h-1.26l-.15-1.11c-.21.38-.54.69-.99.93-.45.24-.95.36-1.49.36-.85,0-1.51-.27-1.98-.81-.47-.54-.7-1.26-.7-2.16v-4.58h1.42v4.11c0,.78.16,1.34.47,1.68s.75.5,1.29.5c.65,0,1.15-.2,1.49-.61.34-.41.51-1.01.51-1.8v-3.88Z"/>
          <path class="cls-2" d="M52.46,45.89v-10.66h1.28l.11,1.32c.24-.51.6-.9,1.08-1.15s1.01-.38,1.59-.38c.7,0,1.31.16,1.82.49s.91.78,1.18,1.35c.28.58.41,1.24.41,2s-.13,1.43-.4,2.02-.65,1.06-1.16,1.4c-.51.34-1.13.51-1.86.51-.59,0-1.12-.12-1.58-.36-.46-.24-.81-.59-1.05-1.04v4.5h-1.42ZM53.89,38.92c0,.49.09.94.28,1.33s.45.71.8.93c.35.22.76.33,1.24.33s.89-.11,1.24-.34c.34-.23.6-.53.79-.93.19-.39.28-.83.28-1.33s-.09-.96-.28-1.35-.45-.7-.79-.92c-.34-.22-.75-.33-1.24-.33s-.9.11-1.24.33c-.35.22-.61.53-.8.92s-.28.84-.28,1.35Z"/>
          <path class="cls-2" d="M64.67,42.77c-.71,0-1.35-.16-1.9-.49s-.98-.78-1.29-1.35c-.31-.58-.47-1.25-.47-2.01s.15-1.45.46-2.03c.31-.58.73-1.04,1.26-1.37.54-.33,1.16-.5,1.88-.5s1.31.15,1.83.45.92.72,1.2,1.26c.29.54.43,1.18.43,1.91v.53l-6.31.02.03-.95h4.86c0-.61-.19-1.1-.56-1.48s-.87-.56-1.49-.56c-.47,0-.88.1-1.21.31-.34.21-.59.51-.77.9s-.26.87-.26,1.42c0,.88.2,1.56.6,2.04.4.48.98.72,1.73.72.55,0,1-.11,1.36-.33s.59-.54.71-.96h1.32c-.18.78-.57,1.39-1.16,1.82s-1.34.65-2.26.65Z"/>
          <path class="cls-2" d="M73.87,35.17v1.29h-.63c-.67,0-1.2.19-1.59.58-.39.39-.58.94-.58,1.65v3.9h-1.42v-7.35h1.33l.12,1.48h-.13c.1-.48.34-.88.72-1.18.38-.31.86-.46,1.43-.46.13,0,.25,0,.37.02.12.02.24.04.38.07Z"/>
          <path class="cls-2" d="M78.58,39.57v-.54h1.43v.54c0,.53.15.97.44,1.32s.75.52,1.35.52,1.06-.17,1.35-.52.43-.8.43-1.36v-7.81h1.48v7.87c0,.65-.14,1.22-.41,1.69-.27.48-.65.85-1.14,1.11-.49.26-1.06.39-1.71.39-.69,0-1.28-.14-1.76-.41-.48-.27-.85-.65-1.09-1.14-.25-.49-.37-1.04-.37-1.66Z"/>
          <path class="cls-2" d="M89.42,42.77c-.78,0-1.4-.21-1.84-.62-.45-.41-.67-.95-.67-1.61s.24-1.21.72-1.62c.48-.41,1.15-.65,2.02-.72l2.32-.18v-.21c0-.41-.08-.74-.23-.99-.15-.25-.36-.42-.62-.53s-.56-.16-.89-.16c-.59,0-1.05.12-1.38.37-.33.25-.49.59-.49,1.05h-1.23c0-.51.13-.96.39-1.34.26-.38.63-.68,1.11-.89.48-.21,1.03-.32,1.66-.32s1.15.11,1.6.32.81.54,1.07.98.38.99.38,1.65v4.62h-1.2l-.15-1.19c-.19.42-.52.76-.99,1-.47.25-1,.37-1.59.37ZM89.83,41.68c.67,0,1.2-.2,1.58-.61.38-.41.57-.96.57-1.65v-.39l-1.88.15c-.62.06-1.07.21-1.35.44s-.41.53-.41.89c0,.39.13.69.4.88.27.2.63.29,1.09.29Z"/>
          <path class="cls-2" d="M94.71,40.46h1.35c0,.37.14.67.41.88.27.22.64.32,1.1.32.5,0,.89-.1,1.16-.29.27-.2.41-.46.41-.79,0-.24-.07-.44-.22-.6s-.41-.29-.79-.39l-1.29-.3c-.65-.16-1.14-.41-1.45-.74-.32-.33-.47-.77-.47-1.31,0-.45.12-.84.35-1.17.24-.33.56-.59.98-.77.42-.18.9-.27,1.44-.27s1.01.1,1.41.29c.4.19.71.46.93.8.23.34.34.75.35,1.22h-1.36c0-.38-.14-.68-.38-.89-.24-.21-.58-.32-1.01-.32s-.78.1-1.02.29c-.24.19-.36.45-.36.78,0,.49.36.83,1.08,1.01l1.29.32c.62.14,1.09.37,1.4.69.31.32.47.75.47,1.29,0,.46-.13.87-.38,1.21-.25.35-.59.61-1.03.8-.44.19-.95.28-1.54.28-.86,0-1.55-.21-2.06-.63s-.77-.98-.77-1.69Z"/>
          <path class="cls-2" d="M103.47,42.59h-1.42v-7.36h1.28l.15,1.13c.23-.42.56-.75,1-.99s.92-.35,1.44-.35c.96,0,1.68.28,2.14.83.46.55.69,1.3.69,2.24v4.5h-1.42v-4.19c0-.74-.16-1.28-.48-1.6-.32-.33-.75-.49-1.29-.49-.66,0-1.18.22-1.54.65s-.55,1.01-.55,1.73v3.9Z"/>
          <path class="cls-2" d="M111.3,35.23l2.59,7.17-.87,1.2-3.21-8.37h1.49ZM110,45.89v-1.16h.95c.23,0,.44-.02.63-.07.19-.05.37-.14.53-.29.16-.15.3-.37.41-.69l3.1-8.46h1.46l-3.48,9.02c-.25.63-.57,1.09-.95,1.37-.38.28-.85.42-1.42.42-.23,0-.45-.01-.65-.04s-.4-.06-.59-.11Z"/>
        </g>
      </g>
    </g>
  </g>
</svg>