<?xml version="1.0" encoding="UTF-8"?>
<svg id="Layer_2" data-name="Layer 2" xmlns="http://www.w3.org/2000/svg" xmlns:xlink="http://www.w3.org/1999/xlink" viewBox="0 0 150 150">
  <defs>
    <style>
      .cls-1 {
        fill: #fff;
      }

      .cls-2 {
        fill: none;
      }

      .cls-3 {
        fill: #f1f2f2;
      }

      .cls-4 {
        fill: #29b7e8;
      }

      .cls-5 {
        clip-path: url(#clippath);
      }
    </style>
    <clipPath id="clippath">
      <rect class="cls-2" x="26" y="26" width="98" height="98"/>
    </clipPath>
  </defs>
  <g id="Layer_1-2" data-name="Layer 1">
    <g>
      <rect class="cls-3" width="150" height="150" rx="16" ry="16"/>
      <g>
        <polygon class="cls-1" points="27.16 88.22 26.52 109.56 26.84 112.75 27.68 116.43 28.8 118.32 33.45 122.18 36.16 123.15 44.12 123.36 113.21 123.36 115.27 122.45 117.58 121.29 120.14 119.71 121.41 117.34 122.63 115.05 123.24 111.57 123.24 80.63 27.16 88.22"/>
        <g class="cls-5">
          <path class="cls-4" d="M111.71,26H38.3c-6.78,0-12.3,5.52-12.3,12.3v73.41c0,6.78,5.52,12.3,12.3,12.3h73.41c6.78,0,12.29-5.52,12.29-12.3V38.3c0-6.78-5.51-12.3-12.29-12.3M122.39,111.71c0,5.89-4.79,10.69-10.68,10.69H38.3c-5.9,0-10.69-4.79-10.69-10.69v-21.1h84.1c4.57,0,8.57-2.52,10.68-6.23v27.33Z"/>
          <path class="cls-1" d="M40.11,41.94c-.05-.21-.04-.45,0-.57.07-.34.31-.73.99-.73.63,0,1,.4,1,.98v.67h2.69v-.76c0-2.35-2.12-2.72-3.64-2.72-1.92,0-3.49.64-3.77,2.4-.08.48-.09.91.02,1.45.47,2.21,4.3,2.85,4.86,4.24.1.26.07.59.02.79-.09.36-.33.73-1.05.73-.67,0-1.08-.39-1.08-.98v-1.04h-2.9v.82c0,2.41,1.9,3.14,3.92,3.14s3.55-.67,3.81-2.48c.13-.93.03-1.54-.01-1.77-.45-2.26-4.55-2.93-4.86-4.2M75.22,41.97c-.05-.21-.03-.44-.01-.56.08-.34.31-.72.98-.72.62,0,.99.39.99.97v.66h2.66v-.75c0-2.33-2.08-2.69-3.59-2.69-1.9,0-3.45.63-3.74,2.38-.08.48-.09.9.03,1.44.46,2.18,4.26,2.82,4.81,4.19.1.26.07.6.02.8-.08.36-.33.72-1.04.72-.67,0-1.08-.38-1.08-.97v-1.04h-2.86v.83c0,2.38,1.87,3.11,3.88,3.11s3.52-.66,3.78-2.45c.12-.92.03-1.52-.02-1.75-.45-2.24-4.5-2.91-4.8-4.16M99.73,47.85l-2.54-8.69h-4v10.68h2.65l-.16-8.97,2.73,8.97h3.84v-10.68h-2.67l.15,8.69ZM48.8,39.16l-2,10.79h2.92l1.5-9.99,1.47,9.99h2.89l-1.99-10.79h-4.8ZM65.11,39.16l-1.36,8.44-1.36-8.44h-4.4l-.23,10.79h2.7l.07-9.99,1.85,9.99h2.74l1.86-9.99.07,9.99h2.7l-.24-10.79h-4.4ZM90.2,39.16h-2.73v7.98c0,.14,0,.29-.02.41-.06.27-.28.79-1.04.79s-.98-.51-1.03-.79c-.03-.11-.03-.27-.03-.41v-7.98h-2.73v7.74c0,.2.01.61.03.71.19,2.02,1.77,2.67,3.76,2.67s3.58-.65,3.77-2.67c.01-.1.03-.51.02-.71v-7.74ZM108.93,43.9v1.57h1.11v1.56c0,.14,0,.29-.03.41-.04.29-.32.79-1.11.79s-1.05-.49-1.1-.79c-.02-.12-.03-.27-.03-.41v-4.93c0-.18.01-.37.05-.51.05-.26.28-.78,1.07-.78s1.03.55,1.08.78c.03.16.03.41.03.41v.6h2.72v-.35s.01-.37-.02-.71c-.2-2.03-1.87-2.67-3.78-2.67s-3.55.65-3.79,2.67c-.02.19-.05.52-.05.71v4.54c0,.2,0,.35.04.71.18,1.97,1.89,2.67,3.79,2.67s3.62-.7,3.8-2.67c.03-.36.03-.51.04-.71v-2.89h-3.82Z"/>
          <polygon class="cls-1" points="37.25 56.96 39.38 56.96 39.38 66.34 43.55 66.34 43.55 68.38 37.25 68.38 37.25 56.96"/>
          <polygon class="cls-1" points="45.08 56.96 51.86 56.96 51.86 59 47.21 59 47.21 61.62 51.86 61.62 51.86 63.66 47.21 63.66 47.21 66.34 51.86 66.34 51.86 68.38 45.08 68.38 45.08 56.96"/>
          <path class="cls-1" d="M53.36,56.96h3.11c3.85,0,6.04,2.47,6.04,5.71s-2.47,5.71-5.94,5.71h-3.2v-11.41ZM55.48,58.93v7.48h.82c2.49,0,4.07-1.61,4.07-3.74s-1.35-3.74-4.16-3.74h-.73Z"/>
        </g>
        <path class="cls-4" d="M37.29,105.18h1.84v9.87h-1.84v-9.87Z"/>
        <path class="cls-4" d="M40.54,105.05h1.84v10h-1.84v-10Z"/>
        <path class="cls-4" d="M43.76,105.05h1.84v10h-1.84v-10Z"/>
        <path class="cls-4" d="M54.05,115.05h-1.81v-.91c-.5.66-1.26,1.07-2.27,1.07-1.89,0-3.04-1.23-3.04-3.38v-4.69h1.85v4.5c0,1.23.54,1.99,1.69,1.99,1.01,0,1.76-.76,1.76-2.15v-4.34h1.83v7.91Z"/>
        <g>
          <path class="cls-4" d="M55.44,107.14h1.81v.92c.5-.66,1.28-1.08,2.26-1.08,1.24,0,2.1.5,2.57,1.37.54-.83,1.46-1.37,2.6-1.37,2.15,0,3.22,1.24,3.22,3.31v4.76h-1.87v-4.61c0-1.15-.58-1.88-1.72-1.88-.99,0-1.74.68-1.74,2.07v4.42h-1.85v-4.66c0-1.14-.57-1.83-1.66-1.83-1.03,0-1.78.7-1.78,2.11v4.38h-1.83v-7.91Z"/>
          <path class="cls-4" d="M70.12,104.06c.72,0,1.15.46,1.15,1.15s-.43,1.14-1.15,1.14-1.15-.45-1.15-1.14.45-1.15,1.15-1.15ZM69.2,107.14h1.84v7.91h-1.84v-7.91Z"/>
          <path class="cls-4" d="M72.36,107.14h1.81v.97c.53-.69,1.34-1.14,2.37-1.14,1.99,0,3.14,1.23,3.14,3.38v4.69h-1.85v-4.5c0-1.23-.59-1.99-1.79-1.99-1.04,0-1.85.76-1.85,2.15v4.34h-1.83v-7.91Z"/>
          <path class="cls-4" d="M80.74,111.11c0-2.62,1.92-4.12,3.92-4.12,1.04,0,1.96.42,2.54,1.11v-.95h1.83v7.91h-1.83v-1.03c-.58.74-1.53,1.19-2.57,1.19-1.91,0-3.89-1.51-3.89-4.11ZM87.3,111.08c0-1.35-1-2.43-2.37-2.43s-2.39,1.07-2.39,2.43,1.04,2.46,2.39,2.46,2.37-1.1,2.37-2.46Z"/>
        </g>
        <path class="cls-4" d="M90.06,107.14h1.35v-1.2l1.84-1.26v2.46h1.61v1.64h-1.61v2.96c0,1.38.2,1.6,1.61,1.6v1.72h-.26c-2.45,0-3.19-.78-3.19-3.3v-2.97h-1.35v-1.64Z"/>
        <path class="cls-4" d="M95.48,111.12c0-2.31,1.8-4.14,4.11-4.14s4.07,1.73,4.07,4.07v.69h-6.43c.26,1.12,1.14,1.87,2.43,1.87,1.03,0,1.81-.54,2.19-1.39l1.5.87c-.69,1.28-1.91,2.14-3.69,2.14-2.49,0-4.18-1.81-4.18-4.1ZM97.31,110.21h4.49c-.27-1.07-1.08-1.62-2.22-1.62s-1.95.65-2.27,1.62Z"/>
        <path class="cls-4" d="M104.47,111.11c0-2.62,1.92-4.12,3.92-4.12,1.03,0,1.95.41,2.53,1.1v-3.03h1.84v10h-1.83v-1.03c-.58.74-1.53,1.19-2.57,1.19-1.91,0-3.89-1.51-3.89-4.11ZM111.02,111.08c0-1.35-1-2.43-2.37-2.43s-2.39,1.07-2.39,2.43,1.04,2.46,2.39,2.46,2.37-1.1,2.37-2.46Z"/>
      </g>
    </g>
  </g>
</svg>