<?xml version="1.0" encoding="UTF-8"?>
<svg id="Layer_2" data-name="Layer 2" xmlns="http://www.w3.org/2000/svg" viewBox="0 0 36.16 49.87">
  <defs>
    <style>
      .cls-1 {
        fill: #00ce7c;
      }
    </style>
  </defs>
  <g id="Layer_1-2" data-name="Layer 1">
    <path class="cls-1" d="M18.08,49.87c-1.08,0-2.06-.26-2.93-.78s-1.56-1.22-2.06-2.09c-1.37,0-2.55-.49-3.52-1.46s-1.46-2.15-1.46-3.52v-8.85c-2.45-1.62-4.42-3.76-5.89-6.42-1.48-2.66-2.21-5.55-2.21-8.67,0-5.03,1.76-9.3,5.27-12.81C8.78,1.76,13.05,0,18.08,0s9.3,1.76,12.81,5.27c3.51,3.51,5.27,7.78,5.27,12.81,0,3.2-.74,6.11-2.21,8.73s-3.44,4.74-5.89,6.36v8.85c0,1.37-.49,2.55-1.46,3.52-.98.98-2.15,1.46-3.52,1.46-.5.87-1.18,1.57-2.06,2.09s-1.85.78-2.93.78ZM13.09,42.02h9.97v-2.24h-9.97v2.24ZM13.09,37.28h9.97v-2.37h-9.97v2.37ZM19.95,29.92v-6.73l5.49-5.49-2.62-2.62-4.74,4.74-4.74-4.74-2.62,2.62,5.49,5.49v6.73h3.74Z"/>
  </g>
</svg>