<?xml version="1.0" encoding="UTF-8"?>
<svg id="Layer_2" data-name="Layer 2" xmlns="http://www.w3.org/2000/svg" viewBox="0 0 150 150">
  <defs>
    <style>
      .cls-1 {
        fill: #002a3a;
      }

      .cls-2 {
        fill: #002b49;
      }

      .cls-3 {
        fill: #00ce7c;
      }

      .cls-4 {
        fill: #f1f2f2;
      }
    </style>
  </defs>
  <g id="Layer_1-2" data-name="Layer 1">
    <g>
      <rect class="cls-4" width="150" height="150" rx="16" ry="16"/>
      <g>
        <path class="cls-3" d="M122.1,48.61H27.9c-2.04,0-3.71-1.67-3.71-3.71v-16.85c0-2.04,1.67-3.71,3.71-3.71h94.2c2.04,0,3.71,1.67,3.71,3.71v16.85c0,2.04-1.67,3.71-3.71,3.71"/>
        <g>
          <path class="cls-1" d="M28.56,114.79v11.14h-1.95v-11.14h1.95ZM26.94,125.94v-1.8h6.27v1.8h-6.27Z"/>
          <path class="cls-1" d="M34.27,121.87v-7.07h1.95v6.95c0,.8.21,1.42.64,1.84s1.03.64,1.81.64,1.4-.22,1.83-.65c.43-.43.64-1.04.64-1.84v-6.95h1.95v7.07c0,.86-.18,1.61-.54,2.25-.36.63-.87,1.13-1.53,1.48-.66.35-1.44.53-2.35.53s-1.67-.17-2.33-.52c-.66-.35-1.17-.84-1.53-1.48-.36-.64-.54-1.39-.54-2.26Z"/>
          <path class="cls-1" d="M46.93,125.94h-1.89v-11.14h1.89l3.6,8.87,3.6-8.87h1.92v11.14h-1.89v-4.84c0-.38,0-.7.01-.97.01-.26.02-.5.03-.7.01-.2.03-.41.06-.61l-2.84,7.12h-1.8l-2.82-7.1c.05.34.08.76.1,1.28.01.52.02,1.13.02,1.83v3.99Z"/>
          <path class="cls-1" d="M64.98,125.94h-6.92v-11.14h6.92v1.8h-5.66l.69-.62v3.49h4.45v1.72h-4.45v3.58l-.69-.62h5.66v1.8Z"/>
          <path class="cls-1" d="M68.54,125.94h-1.92v-11.14h1.94l5.79,8.77h-.56v-8.77h1.92v11.14h-1.92l-5.81-8.75h.56v8.75Z"/>
          <path class="cls-1" d="M87.87,120.36c0,1.13-.23,2.13-.69,3-.46.87-1.09,1.55-1.91,2.04-.81.49-1.75.73-2.82.73s-1.99-.24-2.8-.73-1.45-1.16-1.9-2.03c-.45-.86-.68-1.86-.68-2.99s.23-2.14.69-3.01c.46-.87,1.09-1.55,1.9-2.04.81-.49,1.75-.73,2.81-.73s2,.24,2.81.73c.81.49,1.44,1.16,1.9,2.03.46.86.69,1.87.69,3ZM85.83,120.36c0-.79-.14-1.48-.41-2.06s-.66-1.03-1.16-1.35c-.5-.32-1.09-.48-1.78-.48s-1.27.16-1.78.48c-.5.32-.89.77-1.17,1.35s-.41,1.27-.41,2.06.14,1.48.41,2.07c.27.58.66,1.03,1.17,1.35.5.32,1.1.47,1.78.47s1.29-.16,1.78-.48c.5-.32.88-.77,1.16-1.36.27-.58.41-1.27.41-2.05ZM84.67,111.74l-1.49,2.26h-1.37l1.14-2.26h1.72Z"/>
          <path class="cls-1" d="M91.56,125.94l-3.32-11.14h2.03l1.77,5.88c.09.31.18.63.26.97.08.34.16.75.24,1.24.09-.5.18-.91.27-1.24.09-.33.17-.65.27-.97l1.77-5.88h2.15l1.72,5.88c.09.32.18.65.27.99.09.35.17.75.27,1.22.1-.52.2-.94.28-1.27.09-.33.17-.63.25-.91l1.8-5.92h1.98l-3.38,11.14h-1.89l-2.38-8.11-2.44,8.11h-1.91Z"/>
          <path class="cls-1" d="M105.18,125.94h-1.84l4.34-11.13h1.86l-4.36,11.13Z"/>
          <path class="cls-1" d="M112.63,125.94l-3.32-11.14h2.03l1.77,5.88c.09.31.18.63.26.97.08.34.16.75.24,1.24.09-.5.18-.91.27-1.24.09-.33.17-.65.27-.97l1.77-5.88h2.15l1.72,5.88c.09.32.18.65.27.99.09.35.17.75.27,1.22.1-.52.2-.94.28-1.27.09-.33.17-.63.25-.91l1.8-5.92h1.98l-3.38,11.14h-1.89l-2.38-8.11-2.44,8.11h-1.91Z"/>
        </g>
        <g>
          <path class="cls-3" d="M39.95,65.07h-9.38v-6.96h16.54v44.22h-7.16v-37.26Z"/>
          <path class="cls-3" d="M67.58,80.44h-5.22v-5.02c.74-.6,1.72-1.02,2.93-1.24,1.21-.22,2.35-.33,3.4-.33,2.03,0,3.97.32,5.81.97,1.84.65,3.47,1.58,4.9,2.81,1.43,1.23,2.55,2.74,3.37,4.54.82,1.79,1.23,3.84,1.23,6.14,0,3.03-.69,5.65-2.05,7.86-1.37,2.22-3.24,3.93-5.6,5.14s-5,1.81-7.89,1.81-5.35-.57-7.6-1.72c-2.25-1.15-4.03-2.83-5.34-5.05-1.31-2.22-1.96-4.92-1.96-8.11h7.39c0,2.54.69,4.51,2.08,5.9,1.39,1.39,3.24,2.09,5.54,2.09s4.23-.74,5.66-2.21c1.43-1.47,2.14-3.42,2.14-5.84,0-2.22-.72-4.06-2.17-5.54-1.45-1.47-3.66-2.21-6.63-2.21ZM82.77,64.28l-15.48,14.7-4.93-3.57,15.01-14.22-1.29,3.75h-20.53v-6.84h27.22v6.17Z"/>
          <path class="cls-3" d="M103.53,103.06c-2.97,0-5.58-.62-7.83-1.84-2.25-1.23-3.99-2.96-5.22-5.2-1.23-2.24-1.85-4.85-1.85-7.83h7.39c0,2.5.68,4.46,2.05,5.87,1.37,1.41,3.25,2.12,5.63,2.12,1.68,0,3.14-.35,4.37-1.06,1.23-.71,2.19-1.72,2.87-3.05.68-1.33,1.03-2.88,1.03-4.66s-.32-3.2-.97-4.51c-.64-1.31-1.57-2.33-2.79-3.05s-2.68-1.09-4.4-1.09-3.16.37-4.55,1.12c-1.39.75-2.47,1.7-3.26,2.87l-6.63-1.45,5.28-23.17h22.35v7.14h-18.89l2.52-2.42-3.46,14.1-2.52,1.09c.94-1.85,2.36-3.28,4.25-4.27,1.9-.99,4.04-1.48,6.42-1.48,2.85,0,5.35.63,7.48,1.88,2.13,1.25,3.79,2.97,4.99,5.17,1.19,2.2,1.79,4.75,1.79,7.65,0,3.19-.67,5.99-2.02,8.41-1.35,2.42-3.23,4.31-5.63,5.66-2.4,1.35-5.21,2.03-8.42,2.03Z"/>
        </g>
        <g>
          <path class="cls-2" d="M32.15,33.4c0-.65.16-1.23.49-1.72.33-.49.79-.88,1.38-1.15.59-.27,1.28-.41,2.06-.41.73,0,1.36.13,1.9.39.54.26.97.62,1.28,1.1.31.47.49,1.04.53,1.71h-1.56c-.04-.57-.25-1.01-.63-1.33-.38-.32-.89-.47-1.53-.47-.72,0-1.29.17-1.72.5s-.65.78-.65,1.35c0,.46.13.83.39,1.11.26.28.66.48,1.2.61l1.88.44c.94.21,1.64.57,2.11,1.08.47.51.7,1.17.7,1.97,0,.68-.17,1.28-.5,1.78-.33.51-.8.9-1.41,1.17-.61.27-1.31.41-2.12.41-.77,0-1.45-.13-2.03-.39s-1.04-.63-1.37-1.11c-.33-.48-.52-1.04-.56-1.68h1.58c.01.55.23.98.66,1.3.43.32,1,.48,1.72.48.76,0,1.36-.17,1.81-.51.45-.34.67-.78.67-1.34,0-.45-.13-.82-.38-1.11-.25-.28-.65-.49-1.2-.62l-1.88-.43c-.93-.21-1.63-.58-2.11-1.11-.48-.53-.72-1.21-.72-2.03Z"/>
          <path class="cls-2" d="M47.01,34.01h1.47v7.72h-1.33l-.16-1.17c-.22.4-.57.73-1.04.98-.47.25-.99.38-1.56.38-.9,0-1.59-.28-2.08-.84-.49-.56-.73-1.32-.73-2.27v-4.8h1.48v4.31c0,.82.17,1.41.5,1.76.33.35.78.53,1.35.53.68,0,1.21-.21,1.56-.64.36-.43.54-1.06.54-1.89v-4.07Z"/>
          <path class="cls-2" d="M50.63,45.19v-11.18h1.34l.11,1.39c.25-.54.63-.94,1.13-1.21s1.06-.4,1.67-.4c.74,0,1.37.17,1.91.51.54.34.95.82,1.24,1.42.29.61.43,1.3.43,2.09s-.14,1.49-.42,2.12c-.28.62-.68,1.11-1.22,1.47s-1.18.54-1.95.54c-.62,0-1.17-.13-1.66-.38-.48-.25-.85-.62-1.11-1.09v4.72h-1.48ZM52.13,37.88c0,.52.1.98.29,1.4.19.42.47.74.84.97.36.23.8.35,1.3.35s.94-.12,1.29-.36c.36-.24.63-.56.83-.97.19-.41.29-.87.29-1.39s-.1-1.01-.29-1.42c-.2-.41-.47-.73-.83-.96-.36-.23-.79-.35-1.29-.35s-.94.12-1.3.35c-.36.23-.64.55-.84.96-.2.41-.29.88-.29,1.42Z"/>
          <path class="cls-2" d="M63.43,41.92c-.75,0-1.41-.17-1.99-.51s-1.03-.82-1.36-1.42-.49-1.31-.49-2.11.16-1.52.48-2.13c.32-.61.76-1.09,1.33-1.44.56-.35,1.22-.52,1.97-.52s1.38.16,1.92.47c.54.32.96.76,1.26,1.33s.45,1.24.45,2.01v.55l-6.62.02.03-.99h5.1c0-.64-.2-1.16-.58-1.55s-.91-.58-1.56-.58c-.5,0-.92.11-1.27.32-.35.22-.62.53-.81.95-.18.42-.28.91-.28,1.49,0,.93.21,1.64.63,2.14s1.03.75,1.82.75c.58,0,1.05-.12,1.42-.35.37-.23.62-.57.74-1.01h1.39c-.19.82-.59,1.46-1.22,1.91-.62.45-1.41.68-2.37.68Z"/>
          <path class="cls-2" d="M73.08,33.95v1.36h-.66c-.71,0-1.26.2-1.67.61s-.61.98-.61,1.73v4.09h-1.48v-7.71h1.39l.13,1.55h-.14c.11-.51.36-.92.76-1.24.4-.32.9-.48,1.5-.48.14,0,.27,0,.39.02.12.02.25.04.4.07Z"/>
          <path class="cls-2" d="M78.02,38.56v-.57h1.5v.57c0,.56.15,1.02.47,1.38.31.36.78.54,1.41.54s1.11-.18,1.41-.54c.3-.36.45-.84.45-1.43v-8.2h1.55v8.26c0,.68-.14,1.28-.43,1.78-.28.5-.68.89-1.19,1.16-.51.27-1.11.41-1.79.41-.73,0-1.34-.14-1.85-.43-.51-.28-.89-.68-1.14-1.19-.26-.51-.39-1.09-.39-1.74Z"/>
          <path class="cls-2" d="M89.39,41.92c-.82,0-1.47-.22-1.93-.65s-.7-.99-.7-1.69.25-1.27.76-1.7c.5-.43,1.21-.68,2.12-.75l2.43-.19v-.22c0-.43-.08-.78-.24-1.03-.16-.26-.37-.44-.65-.55-.27-.11-.58-.17-.93-.17-.62,0-1.1.13-1.45.39-.34.26-.51.62-.51,1.1h-1.29c0-.54.14-1.01.41-1.41.27-.4.66-.71,1.16-.93.5-.22,1.08-.33,1.75-.33s1.2.11,1.68.34c.48.23.85.57,1.12,1.03s.4,1.03.4,1.73v4.85h-1.26l-.16-1.25c-.2.44-.54.79-1.03,1.05-.49.26-1.04.39-1.67.39ZM89.82,40.77c.71,0,1.26-.21,1.66-.64.4-.43.6-1,.6-1.73v-.41l-1.97.16c-.65.06-1.12.22-1.41.46-.29.24-.43.55-.43.93,0,.41.14.72.42.92.28.21.66.31,1.14.31Z"/>
          <path class="cls-2" d="M94.94,39.49h1.42c0,.39.14.7.43.92s.67.34,1.15.34c.53,0,.93-.1,1.22-.31.28-.21.43-.48.43-.83,0-.25-.08-.46-.23-.63s-.43-.31-.83-.41l-1.36-.32c-.68-.17-1.19-.43-1.52-.77-.33-.35-.5-.81-.5-1.37,0-.47.12-.88.37-1.23.25-.35.59-.62,1.03-.81.44-.19.94-.28,1.51-.28s1.06.1,1.48.3c.42.2.74.48.98.84.24.36.36.78.37,1.28h-1.42c-.01-.4-.14-.71-.39-.93-.25-.22-.61-.33-1.06-.33s-.82.1-1.07.3c-.25.2-.38.47-.38.82,0,.52.38.87,1.14,1.06l1.36.33c.65.15,1.14.39,1.47.72.33.33.49.78.49,1.35,0,.48-.13.91-.39,1.27-.26.36-.62.64-1.08.84-.46.19-1,.29-1.62.29-.91,0-1.63-.22-2.16-.66-.54-.44-.8-1.03-.8-1.77Z"/>
          <path class="cls-2" d="M104.12,41.73h-1.48v-7.72h1.34l.16,1.18c.24-.44.59-.79,1.05-1.03.46-.25.96-.37,1.51-.37,1.01,0,1.76.29,2.24.87.48.58.73,1.36.73,2.35v4.72h-1.48v-4.39c0-.78-.17-1.34-.5-1.68-.34-.34-.79-.51-1.36-.51-.69,0-1.23.23-1.62.68-.38.45-.58,1.06-.58,1.82v4.09Z"/>
          <path class="cls-2" d="M112.34,34.01l2.72,7.52-.92,1.26-3.36-8.78h1.56ZM110.98,45.19v-1.22h.99c.24,0,.46-.02.66-.07s.38-.15.55-.3c.17-.15.31-.39.43-.72l3.25-8.87h1.53l-3.65,9.46c-.26.66-.59,1.14-1,1.44-.4.29-.89.44-1.48.44-.24,0-.47-.01-.68-.04-.21-.03-.42-.07-.62-.12Z"/>
        </g>
      </g>
    </g>
  </g>
</svg>