<?xml version="1.0" encoding="UTF-8"?>
<svg id="Layer_2" data-name="Layer 2" xmlns="http://www.w3.org/2000/svg" viewBox="0 0 150 150">
  <defs>
    <style>
      .cls-1 {
        fill: #002a3a;
      }

      .cls-2 {
        stroke-width: 8px;
      }

      .cls-2, .cls-3 {
        fill: none;
        stroke: #00ce7c;
        stroke-miterlimit: 10;
      }

      .cls-3 {
        stroke-width: 4px;
      }

      .cls-4 {
        fill: #00ce7c;
      }

      .cls-5 {
        fill: #f1f2f2;
      }
    </style>
  </defs>
  <g id="Layer_1-2" data-name="Layer 1">
    <g>
      <rect class="cls-5" width="150" height="150" rx="16" ry="16"/>
      <g>
        <path class="cls-1" d="M26.86,115.39v10.02h-1.75v-10.02h1.75ZM32.99,115.39l-6.54,8.41v-2.62l4.47-5.8h2.07ZM28.45,121.02l1.12-1.51,3.45,5.89h-2.03l-2.55-4.38Z"/>
        <path class="cls-1" d="M34.78,125.41h-1.81l3.62-10.02h1.79l3.62,10.02h-1.85l-.81-2.32h-3.74l-.82,2.32ZM37.26,118.38l-1.15,3.23h2.73l-1.15-3.23c-.04-.14-.08-.27-.12-.41s-.07-.26-.08-.36c-.02.09-.05.21-.09.35-.04.14-.08.28-.13.42ZM40.98,125.41h1.03c-.35.12-.6.28-.75.47s-.23.38-.23.55c0,.15.05.27.15.36s.23.14.4.14c.12,0,.24-.03.37-.08v1.11c-.19.08-.42.12-.7.12-.41,0-.74-.13-.99-.38s-.37-.55-.37-.9c0-.28.09-.55.27-.81s.46-.46.82-.6Z"/>
        <path class="cls-1" d="M41.98,117.01v-1.62h7.62v1.62h-7.62ZM46.66,116.23v9.18h-1.75v-9.18h1.75Z"/>
        <path class="cls-1" d="M53.24,118.19c0-.58.15-1.1.45-1.55.3-.45.72-.8,1.25-1.05.53-.25,1.15-.38,1.86-.38s1.26.12,1.76.36c.5.24.89.58,1.17,1.01s.43.96.45,1.56h-1.75c-.02-.43-.17-.76-.47-1.01s-.69-.36-1.18-.36c-.54,0-.97.12-1.29.36s-.49.57-.49.99c0,.36.1.64.29.84.2.21.5.36.92.46l1.58.36c.86.18,1.5.5,1.92.94.42.44.63,1.04.63,1.79,0,.61-.15,1.15-.45,1.62-.3.47-.73.82-1.28,1.08-.55.25-1.2.38-1.94.38s-1.32-.12-1.85-.36c-.53-.24-.94-.58-1.24-1.02s-.45-.95-.47-1.55h1.75c0,.42.18.75.5.99s.76.36,1.32.36c.58,0,1.05-.12,1.39-.36s.51-.56.51-.97c0-.35-.09-.62-.27-.83-.18-.21-.48-.35-.89-.43l-1.59-.36c-.85-.18-1.49-.51-1.93-.99s-.66-1.11-.66-1.88ZM58.69,112.65l-1.34,2.03h-1.23l1.03-2.03h1.55Z"/>
        <path class="cls-1" d="M63.6,125.41l-2.99-10.02h1.82l1.59,5.29c.08.27.16.56.23.87.07.31.15.68.22,1.12.08-.45.16-.82.24-1.12.08-.3.16-.59.24-.87l1.59-5.29h1.93l1.55,5.29c.08.28.16.58.24.89.08.31.16.68.24,1.1.09-.47.18-.85.25-1.14.08-.3.15-.57.23-.82l1.62-5.32h1.78l-3.04,10.02h-1.7l-2.14-7.29-2.19,7.29h-1.71Z"/>
        <path class="cls-1" d="M77.04,115.39v10.02h-1.75v-10.02h1.75Z"/>
        <path class="cls-1" d="M85.07,125.41h-6.22v-10.02h6.22v1.62h-5.08l.62-.56v3.14h4v1.55h-4v3.22l-.62-.56h5.08v1.62Z"/>
        <path class="cls-1" d="M90.79,125.57c-.98,0-1.82-.21-2.54-.64-.72-.42-1.27-1.02-1.67-1.79-.4-.77-.6-1.68-.6-2.73s.2-1.95.61-2.73c.41-.78.98-1.38,1.72-1.81.74-.43,1.59-.64,2.56-.64.79,0,1.51.15,2.14.44.63.29,1.15.7,1.56,1.23s.67,1.15.78,1.87h-1.85c-.17-.58-.5-1.04-.97-1.36s-1.04-.49-1.72-.49c-.6,0-1.13.14-1.58.42s-.8.68-1.05,1.21c-.25.52-.37,1.14-.37,1.86s.12,1.3.37,1.83c.25.53.6.93,1.05,1.22.45.29.98.43,1.58.43.69,0,1.27-.17,1.76-.49.49-.33.82-.77.98-1.33h1.82c-.13.69-.4,1.31-.83,1.84-.42.53-.96.94-1.6,1.23-.64.29-1.36.44-2.16.44Z"/>
        <path class="cls-1" d="M102.76,125.41h-6.22v-10.02h6.22v1.62h-5.08l.62-.56v3.14h4v1.55h-4v3.22l-.62-.56h5.08v1.62Z"/>
        <path class="cls-1" d="M105.97,125.41h-1.73v-10.02h1.74l5.21,7.88h-.51v-7.88h1.73v10.02h-1.73l-5.22-7.87h.51v7.87Z"/>
        <path class="cls-1" d="M115.97,115.39v10.02h-1.75v-10.02h1.75Z"/>
        <path class="cls-1" d="M118.63,125.41h-1.81l3.62-10.02h1.79l3.62,10.02h-1.85l-.81-2.32h-3.74l-.82,2.32ZM121.11,118.38l-1.15,3.23h2.73l-1.15-3.23c-.04-.14-.08-.27-.12-.41s-.07-.26-.08-.36c-.02.09-.05.21-.09.35-.04.14-.08.28-.13.42Z"/>
      </g>
      <polyline class="cls-2" points="26.17 46.88 54.67 75.39 75 95.72 95.33 75.39 123.83 46.88"/>
      <g>
        <path class="cls-4" d="M54.65,30.57h-6v-4.31h10.57v27.4h-4.57v-23.09Z"/>
        <path class="cls-4" d="M69.05,30.57h-6v-4.31h10.57v27.4h-4.57v-23.09Z"/>
        <path class="cls-4" d="M87.49,54.11c-1.9,0-3.57-.38-5-1.14-1.44-.76-2.55-1.84-3.34-3.22s-1.18-3-1.18-4.85h4.72c0,1.55.44,2.76,1.31,3.64s2.07,1.31,3.6,1.31c1.07,0,2.01-.22,2.79-.66.79-.44,1.4-1.07,1.84-1.89.44-.82.66-1.79.66-2.89s-.21-1.98-.62-2.79c-.41-.81-1.01-1.44-1.78-1.89-.78-.45-1.71-.67-2.81-.67s-2.02.23-2.91.69c-.89.46-1.58,1.06-2.08,1.78l-4.24-.9,3.37-14.36h14.28v4.42h-12.07l1.61-1.5-2.21,8.73-1.61.67c.6-1.15,1.5-2.03,2.72-2.64,1.21-.61,2.58-.92,4.11-.92,1.82,0,3.42.39,4.78,1.16,1.36.77,2.42,1.84,3.19,3.21.76,1.36,1.14,2.94,1.14,4.74,0,1.97-.43,3.71-1.29,5.21s-2.06,2.67-3.6,3.5c-1.54.84-3.33,1.26-5.38,1.26Z"/>
        <path class="cls-4" d="M109.72,30.72c0,.93-.22,1.76-.66,2.51-.44.75-1.03,1.34-1.76,1.78-.74.44-1.58.66-2.53.66s-1.76-.22-2.51-.66c-.75-.44-1.34-1.03-1.78-1.78-.44-.75-.66-1.59-.66-2.51,0-.97.22-1.83.66-2.57.44-.74,1.03-1.32,1.78-1.74.75-.42,1.59-.64,2.51-.64s1.79.21,2.53.64c.74.43,1.32,1.01,1.76,1.74.44.74.66,1.59.66,2.57ZM107.14,30.72c0-.75-.22-1.35-.66-1.8-.44-.45-1.01-.67-1.71-.67s-1.27.23-1.71.67c-.44.45-.66,1.05-.66,1.8s.22,1.31.66,1.76c.44.45,1.01.67,1.71.67s1.27-.23,1.71-.67.66-1.04.66-1.76Z"/>
      </g>
      <path class="cls-3" d="M95.33,75.39l-20.33,20.33-20.33-20.33c5.2-5.2,12.39-8.42,20.33-8.42s15.13,3.22,20.33,8.42Z"/>
    </g>
  </g>
</svg>